<?xml version="1.0" encoding="utf-8"?>
<?xml-stylesheet type="text/xsl" href="rss1.xsl"?>
<rss version="2.0" xmlns:atom="http://www.w3.org/2005/Atom" xmlns:content="http://purl.org/rss/1.0/modules/content/" xmlns:dc="http://purl.org/dc/elements/1.1/" xmlns:media="http://search.yahoo.com/mrss/">
<channel>
 <title>Getty</title>
 <link>http://www.gettyimg.com/</link>
 <atom:link href="http://www.gettyimg.com/" rel="self" type="application/rss+xml" />

 
                <item>
                <title><![CDATA[【Requests】[REQ AUD] - Ritmo (Jax Jones Midnight Snacks Remix)]]></title>
                <link><![CDATA[https://sharemania.us/threads/ritmo-jax-jones-midnight-snacks-remix.220057/]]></link>
                <description><![CDATA[<article>
<blockquote class="messageText SelectQuoteContainer ugc baseHtml">
Hi anyone for this pls ?<br>
Thanks !!<br>
<br>
<a href="https://open.qobuz.com/album/j7pqgdwletbhb" target="_blank" class="externalLink" rel="nofollow">https://open.qobuz.com/album/j7pqgdwletbhb</a>
<div class="messageTextEndMarker">&nbsp;</div>
</blockquote>
</article>]]></description>
                <author><![CDATA[plauios]]></author>
                </item>

                
                <item>
                <title><![CDATA[【UPSCALED】Sting - Seven Days [1080p AI Upscale / PCM 24-bit 48 kHz]]]></title>
                <link><![CDATA[https://sharemania.us/threads/sting-seven-days-1080p-ai-upscale-pcm-24-bit-48-khz.220059/]]></link>
                <description><![CDATA[<article>
<blockquote class="messageText SelectQuoteContainer ugc baseHtml">
<b><img src="https://images2.imgbox.com/02/c9/PxcjP2ke_o.jpg" class="bbCodeImage LbImage" alt="[​IMG]" data-url="https://images2.imgbox.com/02/c9/PxcjP2ke_o.jpg" style=""> <br>
<br>
Genre:<span style="color: #0059b3"> Rock</span><br>
Style: <span style="color: #0059b3">Pop Rock</span><br>
Year: <span style="color: #0059b3">1993</span><br>
Source: <span style="color: #0059b3">DVD, 576i</span></b><br>
<br>
"<b>Seven Days</b>" is a song by English rock musician Sting, released in 1993. It is the third single from his fourth studio album Ten Summoner's Tales. The song is a ballad, which was only successful in the United Kingdom and Italy. In the United Kingdom, it reached 25th position. Despite the fact that the song did not reach any charts in the Netherlands, it did become a radio hit.<br>
<br>
The music video of this release is ripped from the DVD release of <i>Ten Summoner's Tales</i>.<br>
The 'Ten Summoner's Tales' video was filmed in Sting's 400 year old Wiltshire home, Lake House, at the time of recording the album. This was his first venture as a video album and the release won a Grammy award in 1994 for "Best Long Form Video Of The Year".<br>
<br>
<b>Release Info</b><br>
The video track is upscaled from 576i to 1080p with Topaz Video AI.<br>
The PCM track is Hi-Res (24-bit 48 kHz), default track from the DVD.<br>
The timed lyrics are synced and edited to match the music video.<br>
Enable the subtitles to see the lyrics.<br>
<br>
<div class="ToggleTriggerAnchor bbCodeSpoilerContainer">
<button type="button" class="button bbCodeSpoilerButton ToggleTrigger Tooltip JsOnly" data-target="> .SpoilerTarget"><span>Spoiler: <span class="SpoilerTitle">Media Info</span></span></button>
<div class="SpoilerTarget bbCodeSpoilerText">
<div class="bbCodeBlock bbCodeCode">
<div class="type">Code:</div>
<pre>General
Unique ID                      : 283291907843727523624589476341868555614 (0xD520096DD0726601537A1624DC326D5E)
Complete name                  : Sting - Seven Days.mkv
Format                         : Matroska
Format version                 : Version 4
File size                      : 631 MiB
Duration                       : 4 min 49 s
Overall bit rate mode          : Variable
Overall bit rate               : 18.3 Mb/s
Encoded date                   : UTC 2023-04-30 13:46:47
Writing application            : mkvmerge v76.0 ('Celebration') 64-bit
Writing library                : libebml v1.4.4 + libmatroska v1.7.1

Video
ID                             : 1
Format                         : AVC
Format/Info                    : Advanced Video Codec
Format profile                 : High@L4
Format settings                : CABAC / 4 Ref Frames
Format settings, CABAC         : Yes
Format settings, Reference fra : 4 frames
Codec ID                       : V_MPEG4/ISO/AVC
Duration                       : 4 min 49 s
Bit rate mode                  : Variable
Bit rate                       : 16.0 Mb/s
Width                          : 1 920 pixels
Height                         : 1 080 pixels
Display aspect ratio           : 16:9
Original display aspect ratio  : 16:9
Frame rate mode                : Constant
Frame rate                     : 25.000 FPS
Color space                    : YUV
Chroma subsampling             : 4:2:0
Bit depth                      : 8 bits
Scan type                      : Interlaced
Original scan type             : Progressive
Scan type, store method        : Interleaved fields
Scan order                     : Top Field First
Bits/(Pixel*Frame)             : 0.309
Stream size                    : 551 MiB (87%)
Language                       : English
Default                        : Yes
Forced                         : No
Color range                    : Limited

Audio
ID                             : 2
Format                         : PCM
Format settings                : Little / Signed
Codec ID                       : A_PCM/INT/LIT
Duration                       : 4 min 49 s
Bit rate mode                  : Constant
Bit rate                       : 2 304 kb/s
Channel(s)                     : 2 channels
Sampling rate                  : 48.0 kHz
Frame rate                     : 25.003 FPS (1920 SPF)
Bit depth                      : 24 bits
Stream size                    : 79.4 MiB (13%)
Title                          : 24-bit 48 kHz
Language                       : English
Default                        : Yes
Forced                         : No

Text
ID                             : 3
Format                         : UTF-8
Codec ID                       : S_TEXT/UTF8
Codec ID/Info                  : UTF-8 Plain Text
Duration                       : 4 min 19 s
Bit rate                       : 45 b/s
Frame rate                     : 0.232 FPS
Count of elements              : 60
Stream size                    : 1.45 KiB (0%)
Title                          : Lyrisc
Language                       : English
Default                        : No
Forced                         : No
</pre>
</div></div>
</div><br>
<div class="bbCodeBlock bbCodeVfcHH HiddenContent">
<div class="attribution type">Hidden Content:</div>
<blockquote>You must reply before you can see the hidden data contained here.</blockquote>
</div>
<div class="messageTextEndMarker">&nbsp;</div>
</blockquote>
</article>]]></description>
                <author><![CDATA[ADHDerby]]></author>
                </item>

                
                <item>
                <title><![CDATA[【Requests】[REQ AUD] - Ritmo (Jax Jones Midnight Snacks Remix)]]></title>
                <link><![CDATA[https://sharemania.us/threads/ritmo-jax-jones-midnight-snacks-remix.220058/]]></link>
                <description><![CDATA[<article>
<blockquote class="messageText SelectQuoteContainer ugc baseHtml">
Hi anyone for this pls ?<br>
Thanks !!<br>
<br>
<a href="https://open.qobuz.com/album/j7pqgdwletbhb" target="_blank" class="externalLink" rel="nofollow">https://open.qobuz.com/album/j7pqgdwletbhb</a>
<div class="messageTextEndMarker">&nbsp;</div>
</blockquote>
</article>]]></description>
                <author><![CDATA[plauios]]></author>
                </item>

                
                <item>
                <title><![CDATA[【UPSCALED】Sting - Shape of my Heart [1080p AI Upscale / PCM 24-bit 48 kHz]]]></title>
                <link><![CDATA[https://sharemania.us/threads/sting-shape-of-my-heart-1080p-ai-upscale-pcm-24-bit-48-khz.220056/]]></link>
                <description><![CDATA[<article>
<blockquote class="messageText SelectQuoteContainer ugc baseHtml">
<b><img src="https://images2.imgbox.com/f5/26/439t7df6_o.jpg" class="bbCodeImage LbImage" alt="[​IMG]" data-url="https://images2.imgbox.com/f5/26/439t7df6_o.jpg" style=""> <br>
<br>
Genre: <span style="color: #0059b3">Rock</span><br>
Style: <span style="color: #0059b3">Pop Rock</span><br>
Year: <span style="color: #0059b3">1993</span><br>
Source: <span style="color: #0059b3">DVD, 576i</span></b><br>
<br>
"<b>Shape of My Heart</b>" is a song by British musician Sting, released in August 1993 as the fifth single from his fourth solo album, <i>Ten Summoner's Tales</i> (1993). The song was co-written by guitarist Dominic Miller and features harmonica played by Larry Adler. It was used for the end credits of the 1994 film <i>Léon</i>, starring Jean Reno, Gary Oldman and Natalie Portman, and within the 1993 film <i>Three of Hearts</i>. Despite failing to reach the top 50 in the UK upon its release, it has become a pop classic and one of Sting's works most closely associated with his solo career. It has since been sampled in many tracks since its release, including "Shape" (2003) by Sugababes and "Rise &amp; Fall" (2003) by Craig David. Ann-Margret sang a cover over the opening credits of her 1996 movie <i>Blue Rodeo.</i><br>
<br>
The song's guitar riff was also sampled by Nas for his track "The Message" in 1996 and interpolated by Juice WRLD on the worldwide hit "Lucid Dreams" (2018), on "You’re Mines Still" (2020) by rapper BLEU and in "Parkstone Drive" by Russ.<br>
<br>
Sting explained that through "Shape of My Heart", he wanted to tell the story of a "<a href="https://en.wikipedia.org/wiki/Card_player" target="_blank" class="externalLink" rel="nofollow">card player</a>, a gambler who gambles not to win but to try to figure out something; to figure out some kind of mystical logic in luck, or chance; some kind of scientific, almost religious law."<br>
<br>
The accompanying music video for "Shape of My Heart" was directed by Doug Nichol and premiered in September 1993. It was filmed in Sting's 400 year old Wiltshire home, Lake House, at the time of recording the <i>Ten Summoner's Tales </i>album.<br>
<br>
<b>Release Info</b><br>
The video track is upscaled from 576i to 1080p with Topaz Video AI.<br>
The PCM track is Hi-Res (24-bit 48 kHz), default track from the DVD.<br>
The timed lyrics are synced and edited to match the music video.<br>
Enable the subtitles to see the lyrics.<br>
<br>
<div class="ToggleTriggerAnchor bbCodeSpoilerContainer">
<button type="button" class="button bbCodeSpoilerButton ToggleTrigger Tooltip JsOnly" data-target="> .SpoilerTarget"><span>Spoiler: <span class="SpoilerTitle">Media Info</span></span></button>
<div class="SpoilerTarget bbCodeSpoilerText">
<div class="bbCodeBlock bbCodeCode">
<div class="type">Code:</div>
<pre>General
Unique ID                      : 159750541378961988839371434901023564366 (0x782ED5CAE8779282FBB0F4C10FED224E)
Complete name                  : Sting - Shape of my Heart.mkv
Format                         : Matroska
Format version                 : Version 4
File size                      : 628 MiB
Duration                       : 4 min 48 s
Overall bit rate mode          : Variable
Overall bit rate               : 18.3 Mb/s
Encoded date                   : UTC 2023-04-28 23:17:03
Writing application            : mkvmerge v75.0.0 ('Goliath') 64-bit
Writing library                : libebml v1.4.4 + libmatroska v1.7.1

Video
ID                             : 1
Format                         : AVC
Format/Info                    : Advanced Video Codec
Format profile                 : High@L4
Format settings                : CABAC / 4 Ref Frames
Format settings, CABAC         : Yes
Format settings, Reference fra : 4 frames
Codec ID                       : V_MPEG4/ISO/AVC
Duration                       : 4 min 47 s
Bit rate mode                  : Variable
Bit rate                       : 16.0 Mb/s
Width                          : 1 920 pixels
Height                         : 1 080 pixels
Display aspect ratio           : 16:9
Frame rate mode                : Constant
Frame rate                     : 25.000 FPS
Color space                    : YUV
Chroma subsampling             : 4:2:0
Bit depth                      : 8 bits
Scan type                      : Interlaced
Original scan type             : Progressive
Scan type, store method        : Interleaved fields
Scan order                     : Top Field First
Bits/(Pixel*Frame)             : 0.309
Stream size                    : 549 MiB (87%)
Language                       : English
Default                        : Yes
Forced                         : No
Color range                    : Limited

Audio
ID                             : 2
Format                         : PCM
Format settings                : Little / Signed
Codec ID                       : A_PCM/INT/LIT
Duration                       : 4 min 48 s
Bit rate mode                  : Constant
Bit rate                       : 2 304 kb/s
Channel(s)                     : 2 channels
Sampling rate                  : 48.0 kHz
Frame rate                     : 25.000 FPS (1920 SPF)
Bit depth                      : 24 bits
Stream size                    : 79.1 MiB (13%)
Title                          : 24-bit 48 kHz
Language                       : English
Default                        : Yes
Forced                         : No

Text
ID                             : 3
Format                         : UTF-8
Codec ID                       : S_TEXT/UTF8
Codec ID/Info                  : UTF-8 Plain Text
Duration                       : 3 min 52 s
Bit rate                       : 45 b/s
Frame rate                     : 0.151 FPS
Count of elements              : 35
Stream size                    : 1.28 KiB (0%)
Title                          : Lyrics
Language                       : English
Default                        : No
Forced                         : No
</pre>
</div></div>
</div><br>
<div class="bbCodeBlock bbCodeVfcHH HiddenContent">
<div class="attribution type">Hidden Content:</div>
<blockquote>You must reply before you can see the hidden data contained here.</blockquote>
</div>
<div class="messageTextEndMarker">&nbsp;</div>
</blockquote>
</article>]]></description>
                <author><![CDATA[ADHDerby]]></author>
                </item>

                
                <item>
                <title><![CDATA[【Albums (lossless)】FLAC - (G)I-dle Discography (2018-2022) - Albums, EPs, Singles [FLAC 16 &amp; 24Bit/44.1 &amp; 48 &amp; 96kHz]]]></title>
                <link><![CDATA[https://sharemania.us/threads/g-i-dle-discography-2018-2022-albums-eps-singles-flac-16-24bit-44-1-48-96khz.220055/]]></link>
                <description><![CDATA[<article>
<blockquote class="messageText SelectQuoteContainer ugc baseHtml">
<img src="https://i.imgur.com/hWGHNcj.jpg" class="bbCodeImage LbImage" alt="[​IMG]" data-url="https://i.imgur.com/hWGHNcj.jpg" style=""> <br>
<br>
<b>Mini Albums:</b><br>
<br>
[ FLAC 24 Bit / 96 kHz ] The 1st Mini Album - «I Am»<br>
[ FLAC 24 Bit / 96 kHz ] The 2nd Mini Album - «I Made»<br>
[ FLAC 24 Bit / 48 kHz ] The 3rd Mini Album - «I Trust»<br>
[ FLAC 24 Bit / 96 kHz ] The 4th Mini Album - «I Burn»<br>
[ FLAC 16 Bit / 44.1 kHz ] The 5th Mini Album - «I Love»<br>
<br>
<b>Japanese Mini Albums:</b><br>
<br>
[ FLAC 16 Bit / 44.1 kHz ] The 1st Japanese Mini Album - «Latata»<br>
[ FLAC 16 Bit / 44.1 kHz ] The 2nd Japanese Mini Album - «Oh My God»<br>
<br>
<b>Studio albums:</b><br>
<br>
[ FLAC 16 Bit / 44.1 kHz ] The 1st Studio Album - «I Never Die»<br>
<br>
<b>Single albums:</b><br>
<br>
The 1st Single Album - «Dumdi Dumdi» <br>
[ FLAC 24 Bit / 96 kHz ] <i>(G)I-DLE - «Dumdi Dumdi»</i><br>
[ FLAC 16 Bit / 44.1 kHz ]<i> (G)I-DLE - «I'm The Trend»</i><br>
<br>
<b>Singles:</b><br>
<br>
(G)I-DLE - «Latata» (English Ver.)<br>
(G)I-DLE - «Uh-Oh»<br>
(G)I-DLE - «HANN»<br>
(G)I-DLE - «HWAA» (English Ver.) &amp; «HWAA» (Chinese Ver.) &amp; «HWAA» (Dimitri Vegas &amp; Like Mike Remix)<br>
(G)I-DLE - «Relay» &amp; «Relay» (iLYKE to Run Run Remix) &amp; «Relay» (hue Remix)<br>
(G)I-DLE - «Last Dance (Prod. GroovyRoom)»<br>
[Her Private Life OST] (G)I-DLE - «Help Me»<br>
[Sugar Man 3] (G)I-DLE - «Show»<br>
[Queendom. Box of Pandora: Part One] (G)I-DLE - «Put It Straight» (Nightmare Version)<br>
<br>
<b>Download link:</b><br>
<br>
<div class="bbCodeBlock bbCodeVfcHH HiddenContent">
<div class="attribution type">Hidden Content:</div>
<blockquote>You must reply before you can see the hidden data contained here.</blockquote>
</div>
<div class="messageTextEndMarker">&nbsp;</div>
</blockquote>
</article>]]></description>
                <author><![CDATA[WithLovrSNSD]]></author>
                </item>

                </channel></rss>